# xmcd CD database file
#
# Track frame offsets:
#	150
#	16365
#	36187
#	53854
#	75061
#	94224
#	112384
#	128035
#	144256
#	157671
#	177647
#	196229
#	213026
#	231280
#	247932
#	264423
#	283720
#	303185
#	316475
#	336963
#
# Disc length: 4728 seconds
#
# Revision: 1
# Processed by: cddbd v1.5.1PL0 Copyright (c) Steve Scherf et al.
# Submitted via: CDex 1.51
#
DISCID=0d127614
DTITLE=Smokie - The Hit Box - CD-01
DYEAR=2003
DGENRE=Oldies
TTITLE0=Living Next Door to Alice
TTITLE1=Wild Wild Angels
TTITLE2=Rock Away Your Teardrops
TTITLE3=Sailing
TTITLE4=Have You Ever Seen The Rain
TTITLE5=Like an Eagle
TTITLE6=It's Your Life
TTITLE7=My Heart is True
TTITLE8=Hungry Heart
TTITLE9=Boulevard of Broken Dreams
TTITLE10=Young Hearts
TTITLE11=When The Lighting Strikes
TTITLE12=Don't Play That Game With Me
TTITLE13=Still The One
TTITLE14=Looking Daggers
TTITLE15=Naked Love
TTITLE16=Heartbreak Angel
TTITLE17=Something's Been Making me Blue
TTITLE18=Never Made in Heaven
TTITLE19=Will You Still Love me Tomorrow
EXTD=YEAR: 2003
EXTT0=
EXTT1=
EXTT2=
EXTT3=
EXTT4=
EXTT5=
EXTT6=
EXTT7=
EXTT8=
EXTT9=
EXTT10=
EXTT11=
EXTT12=
EXTT13=
EXTT14=
EXTT15=
EXTT16=
EXTT17=
EXTT18=
EXTT19=
PLAYORDER=
